<?xml version="1.0" encoding="utf-8"?>
<!-- Generator: Adobe Illustrator 15.0.0, SVG Export Plug-In  -->
<!DOCTYPE svg PUBLIC "-//W3C//DTD SVG 1.1//EN" "http://www.w3.org/Graphics/SVG/1.1/DTD/svg11.dtd" [
	<!ENTITY ns_flows "http://ns.adobe.com/Flows/1.0/">
]>
<svg version="1.1"
	 xmlns="http://www.w3.org/2000/svg" xmlns:xlink="http://www.w3.org/1999/xlink" xmlns:a="http://ns.adobe.com/AdobeSVGViewerExtensions/3.0/"
	 x="0px" y="0px" width="30px" height="30px" viewBox="0 0 30 30" enable-background="new 0 0 30 30" xml:space="preserve">
<defs>
</defs>
<g>
	<g>
		<path fill="#727176" d="M29.097,28.348c-9.434,0-18.868,0-28.301,0c0.901,0,0.705,1.274,0.705-0.311c0-0.942,0-1.884,0-2.826
			c0-3.264,0-6.528,0-9.793c0-4.874,0-9.748,0-14.623C1.5,1.696,0.226,1.5,1.811,1.5c0.942,0,1.884,0,2.826,0
			c3.264,0,6.528,0,9.793,0c4.874,0,9.748,0,14.622,0c-0.901,0-0.705-1.274-0.705,0.311c0,0.942,0,1.884,0,2.826
			c0,3.264,0,6.528,0,9.793c0,4.89,0,9.778,0,14.668c0,0.968,1.5,0.968,1.5,0c0-9.449,0-18.898,0-28.348
			c0-0.409-0.341-0.75-0.75-0.75C19.648,0,10.199,0,0.75,0C0.341,0,0,0.341,0,0.75c0,9.449,0,18.898,0,28.348
			c0,0.409,0.341,0.75,0.75,0.75c9.449,0,18.898,0,28.347,0C30.064,29.848,30.064,28.348,29.097,28.348z"/>
	</g>
</g>
<g>
	<g>
		<path fill="#727176" d="M6.173,10.292c5.833,0,11.667,0,17.5,0c1.451,0,1.451-2.25,0-2.25c-5.833,0-11.667,0-17.5,0
			C4.722,8.042,4.722,10.292,6.173,10.292L6.173,10.292z"/>
	</g>
</g>
<g>
	<g>
		<path fill="#727176" d="M6.173,16.292c5.833,0,11.667,0,17.5,0c1.451,0,1.451-2.25,0-2.25c-5.833,0-11.667,0-17.5,0
			C4.722,14.042,4.722,16.292,6.173,16.292L6.173,16.292z"/>
	</g>
</g>
<g>
	<g>
		<path fill="#727176" d="M6.173,22.292c5.833,0,11.667,0,17.5,0c1.451,0,1.451-2.25,0-2.25c-5.833,0-11.667,0-17.5,0
			C4.722,20.042,4.722,22.292,6.173,22.292L6.173,22.292z"/>
	</g>
</g>
</svg>
